<svg id="Capa_1" data-name="Capa 1" xmlns="http://www.w3.org/2000/svg" viewBox="0 0 99.01 99.01"><defs><style>.cls-1{fill:#0dce84;}.cls-2{fill:#fff;}</style></defs><title>Artboard 1</title><path class="cls-1" d="M11,22.46A9.62,9.62,0,0,0,6.66,30V69.05A9.62,9.62,0,0,0,11,76.55L44.84,96.09a9.57,9.57,0,0,0,8.66,0L87.35,76.55a9.62,9.62,0,0,0,4.33-7.5V30a9.62,9.62,0,0,0-4.33-7.5L53.5,2.92a9.64,9.64,0,0,0-8.66,0Z"/><path class="cls-2" d="M15.9,41.1V37c0-5.83,3.25-8.07,9.19-8.07h.11c5.93,0,9.18,2.24,9.18,8.07v4.59c0,4.93-3.25,7.05-6.94,10.64-3.25,3.13-5.38,5.26-5.38,7.39v3.58H32.14a2,2,0,0,1,2.24,2.24v.9a2,2,0,0,1-2.24,2.24H18a2,2,0,0,1-2.24-2.24V59.47c0-5,4.09-8.18,8-11.93,3-2.86,4.31-4,4.31-6.1V37.63c0-2.69-1.29-3.36-3.08-3.36s-3,.67-3,3.36V41.1a2,2,0,0,1-2.24,2.24H18.14A2,2,0,0,1,15.9,41.1Z"/><path class="cls-2" d="M57.79,37.18V60.7c0,5.93-3.53,8.29-9.41,8.29h-.45c-5.88,0-9.4-2.36-9.4-8.29V37.18c0-5.94,3.52-8.29,9.4-8.29h.45C54.26,28.89,57.79,31.24,57.79,37.18ZM48.16,34.6c-2.07,0-3.36.79-3.36,3.59v21.5c0,2.8,1.29,3.59,3.36,3.59s3.36-.79,3.36-3.59V38.19C51.52,35.39,50.23,34.6,48.16,34.6Z"/><path class="cls-2" d="M82.21,37.18V60.7c0,5.93-3.53,8.29-9.41,8.29h-.45c-5.88,0-9.41-2.36-9.41-8.29V37.18c0-5.94,3.53-8.29,9.41-8.29h.45C78.68,28.89,82.21,31.24,82.21,37.18ZM72.57,34.6c-2.07,0-3.36.79-3.36,3.59v21.5c0,2.8,1.29,3.59,3.36,3.59s3.36-.79,3.36-3.59V38.19C75.93,35.39,74.65,34.6,72.57,34.6Z"/></svg>